<svg xmlns="http://www.w3.org/2000/svg" xmlns:xlink="http://www.w3.org/1999/xlink" width="150" height="50" viewBox="0 0 150 50">
<defs>
    <style>
      .cls-1 {
        fill: url(#linear-gradient);
      }

      .cls-2 {
        fill: #222a35;
      }

      .cls-2, .cls-3, .cls-4, .cls-5 {
        fill-rule: evenodd;
      }

      .cls-3 {
        opacity: 0.1;
        fill: url(#linear-gradient-2);
      }

      .cls-4 {
        fill: url(#linear-gradient-3);
      }

      .cls-5 {
        fill: url(#linear-gradient-4);
      }
    </style>
    <linearGradient id="linear-gradient" x1="146.188" y1="37.625" x2="146.188" y2="32.063" gradientUnits="userSpaceOnUse">
      <stop offset="0" stop-color="#3bcbfe"/>
      <stop offset="1" stop-color="#3ccdff"/>
    </linearGradient>
    <linearGradient id="linear-gradient-2" y1="47.125" x2="29.906" y2="47.125" gradientUnits="userSpaceOnUse">
      <stop offset="0" stop-opacity="0"/>
      <stop offset="0.415"/>
      <stop offset="0.5"/>
      <stop offset="0.585"/>
      <stop offset="1" stop-opacity="0"/>
    </linearGradient>
    <linearGradient id="linear-gradient-3" x1="14.969" y1="41" x2="14.969" y2="15" gradientUnits="userSpaceOnUse">
      <stop offset="0" stop-color="#3acafd"/>
      <stop offset="1" stop-color="#3ccdff"/>
    </linearGradient>
    <linearGradient id="linear-gradient-4" x1="15" y1="19" x2="15" y2="4" gradientUnits="userSpaceOnUse">
      <stop offset="0" stop-color="#3ccdff"/>
      <stop offset="1" stop-color="#3ccdff"/>
    </linearGradient>
  </defs>
  <circle id="Gradient_Fill_1" data-name="Gradient Fill 1" class="cls-1" cx="146.188" cy="34.844" r="2.781"/>
  <path id="Start" class="cls-2" d="M41.38,37.514a12.89,12.89,0,0,0,5.083-.942A7.967,7.967,0,0,0,49.9,33.94a6.467,6.467,0,0,0,1.222-3.893,5.359,5.359,0,0,0-1.045-3.378,7.6,7.6,0,0,0-3.011-2.222,28.329,28.329,0,0,0-5.119-1.582,14.48,14.48,0,0,1-4.215-1.458,2.5,2.5,0,0,1-1.24-2.24,3.134,3.134,0,0,1,1.4-2.72,6.547,6.547,0,0,1,3.808-.978,9.524,9.524,0,0,1,3.348.516,11.976,11.976,0,0,1,2.816,1.582,5.189,5.189,0,0,0,.8.391,1.948,1.948,0,0,0,.655.107,1.31,1.31,0,0,0,1.045-.551,2.01,2.01,0,0,0,.443-1.3,2.031,2.031,0,0,0-.195-0.942,2.681,2.681,0,0,0-.655-0.764,12.328,12.328,0,0,0-8.254-2.7,12.2,12.2,0,0,0-4.977.978,8.176,8.176,0,0,0-3.454,2.72,6.638,6.638,0,0,0-1.24,3.947,5.9,5.9,0,0,0,.992,3.52,7.149,7.149,0,0,0,2.94,2.276,25.377,25.377,0,0,0,5.066,1.564,17.109,17.109,0,0,1,4.3,1.4,2.28,2.28,0,0,1,1.293,2.08,2.97,2.97,0,0,1-1.382,2.649,7.235,7.235,0,0,1-3.968.907,12.812,12.812,0,0,1-3.684-.5,10.591,10.591,0,0,1-3.188-1.6,2.874,2.874,0,0,0-1.452-.5,1.31,1.31,0,0,0-1.045.551,2.165,2.165,0,0,0,.372,3,11.314,11.314,0,0,0,3.95,1.973,17.837,17.837,0,0,0,5.154.729h0Zm21.608-.142A2.136,2.136,0,0,0,65.255,35.1V15.9H71.7q2.125,0,2.125-1.884T71.7,12.127H54.238q-2.126,0-2.125,1.884T54.238,15.9h6.447V35.1a2.237,2.237,0,0,0,.62,1.653,2.268,2.268,0,0,0,1.683.622h0Zm33.086-2.916L86.262,13.371a2.293,2.293,0,0,0-.974-1.084,2.809,2.809,0,0,0-2.8,0,2.29,2.29,0,0,0-.974,1.084L71.738,34.456a2.2,2.2,0,0,0-.213.924,1.75,1.75,0,0,0,.673,1.387,2.249,2.249,0,0,0,1.488.569,2.073,2.073,0,0,0,1.1-.3,2.016,2.016,0,0,0,.779-0.942l2.125-4.764H90.159l2.125,4.764a1.961,1.961,0,0,0,1.842,1.245,2.23,2.23,0,0,0,1.505-.569,1.769,1.769,0,0,0,.655-1.387,2.2,2.2,0,0,0-.213-0.924h0ZM83.924,17.211L88.6,27.771H79.248Zm35.778,17.1-3.224-4.942a7.8,7.8,0,0,0-1.523-1.778,4.467,4.467,0,0,0-1.806-.889,7.789,7.789,0,0,0,4.658-2.4,6.961,6.961,0,0,0,1.647-4.782,6.846,6.846,0,0,0-2.214-5.493q-2.214-1.9-6.465-1.9h-8.856a2.215,2.215,0,0,0-1.612.569,2.131,2.131,0,0,0-.584,1.6V35.1a2.285,2.285,0,0,0,.62,1.689,2.222,2.222,0,0,0,1.647.622,2.162,2.162,0,0,0,1.629-.622,2.323,2.323,0,0,0,.6-1.689V27.131h3.471a4.108,4.108,0,0,1,2.073.462,4.61,4.61,0,0,1,1.5,1.6l4.712,7.182a2.3,2.3,0,0,0,1.948,1.067,2.368,2.368,0,0,0,1.541-.533,1.668,1.668,0,0,0,.655-1.351,2.256,2.256,0,0,0-.425-1.244h0Zm-9.564-10.7h-5.952V15.683h5.952a6.154,6.154,0,0,1,3.79.942,3.583,3.583,0,0,1,1.2,3,3.644,3.644,0,0,1-1.2,3,5.981,5.981,0,0,1-3.79.978h0Zm21.679,13.76a2.136,2.136,0,0,0,2.267-2.276V15.9h6.448q2.126,0,2.125-1.884t-2.125-1.884H123.067q-2.124,0-2.125,1.884t2.125,1.884h6.448V35.1a2.235,2.235,0,0,0,.62,1.653,2.267,2.267,0,0,0,1.682.622h0Z"/>
  <path id="Gradient_Fill_2" data-name="Gradient Fill 2" class="cls-3" d="M14.96,45.944c8.262,0,14.96.96,14.96,1.458s-6.7.9-14.96,0.9S0,47.9,0,47.4,6.7,45.944,14.96,45.944Z"/>
  <path id="Gradient_Fill_1-2" data-name="Gradient Fill 1" class="cls-4" d="M20,15V38s-0.2,3-3,3c-1.716-.016-2.309.016-4,0a3.012,3.012,0,0,1-3-3s0.133-6.417.133-7.778C10.133,28.2,7.719,18.352,20,15Z"/>
  <path id="Gradient_Fill_1-3" data-name="Gradient Fill 1" class="cls-5" d="M15,4c3.355-.01,5,2,5,6,0,2.467-.792,1.9-5.3,5.222C10.39,18.4,10,19,10,19s0.054-7.616,0-9C9.871,6.687,11.621,4.01,15,4Z"/>
</svg>
